<?xml version="1.0" encoding="UTF-8"?>
<svg id="Lag_2" xmlns="http://www.w3.org/2000/svg" xmlns:xlink="http://www.w3.org/1999/xlink" version="1.1" viewBox="0 0 205.3 55.7">
  <!-- Generator: Adobe Illustrator 29.0.1, SVG Export Plug-In . SVG Version: 2.1.0 Build 192)  -->
  <defs>
    <style>
      .st0 {
        fill: none;
      }

      .st1 {
        fill: #aa0021;
      }

      .st2 {
        fill: #fff;
      }

      .st3 {
        fill: #ff35c3;
      }

      .st4 {
        fill: #5600bf;
      }

      .st5 {
        clip-path: url(#clippath);
      }
    </style>
    <clipPath id="clippath">
      <rect class="st0" width="205.3" height="55.7"/>
    </clipPath>
  </defs>
  <g id="Lag_1-2">
    <g class="st5">
      <path class="st4" d="M203.5,32.4c-.6,1.8-1.3,3.5-2.3,4.9-2.2,3.4-3.2,7.4-2.8,11.5.4,4.4-3.3,8.4-7.7,8.4s-5.6-2.3-8.7-3.5c-13.5-6.4-28.8-8.2-43.6-8.4-29.4.2-62.6,6.1-91.8,5l-8.5-.7c-.8,0-1.7-.2-2.5-.4-2.1-.5-5.5-.8-7.5-1-5.2-.6-11.5-3.2-16.2-4.5C2,41-1.3,27.7,3.3,19.2l1.2-2.4c3.5-6.7,11.3-11.1,18.4-11.1,6,0,16.1,4.6,21.2,4.7,44.9,4.2,90.4-13.8,135.9-5.3,4.6,1,8.9,2,13.5,3.7,9.1,3.2,12.4,14.6,10,23.4v.2h0Z"/>
    </g>
    <path class="st2" d="M103.9,14.8l.4-.7c.2-.4.2-.9,0-1.3-.2-.3-.6-.6-1.1-.6s0,0-.2,0c-5.3.7-9.6,1.2-13.5,1.7-.4,0-.8.3-1,.7-.8,1.4-1.6,2.8-2.3,4.3v-1.2c-.2-.4-.6-.6-1.1-.6,0-.2.3-.5.4-.7.2-.4.2-.9,0-1.3-.2-.4-.6-.6-1.1-.6s0,0,0,0c-2.4.3-3.7.4-6.2.6-.3,0-.6.2-.8.4-3.3,3.4-6.7,6.9-10.2,10.6.4-2,.8-4.1,1.2-6,0-.4,0-.8-.3-1.1-.2-.2-.4-.3-.7-.4,0-.4,0-.7.2-1.1,0-.4,0-.8-.3-1.1-.2-.3-.6-.4-1-.4h0c-2.5.1-3.6.1-6,.2-.4,0-.8.2-1.1.6-4.2,6.8-8.4,13.6-12.7,20.4,1.8-6.3,3.3-11.8,4.8-17,0-.4,0-.8-.2-1.1s-.5-.5-.8-.5l.3-1c0-.4,0-.8-.2-1.1s-.6-.5-1-.5c-2.2-.1-3.3-.2-5.4-.5h0c-.3,0-.6.1-.9.3-4.3,4.1-8.7,8.1-13.1,12.2l.7-1c.2-.3.3-.8,0-1.2,0-.4-.5-.7-.9-.8h-.4c.3,0,.6.1,1,.2h.3c.5,0,1-.3,1.2-.8,1-2.4,1.2-4.6.3-6.4,0-.1,0-.3-.2-.4,0-.8-.2-1.5-.5-2.2-.8-1.8-2.4-3.1-4.6-3.8-1.3-.4-2.6-.6-3.9-.6-4.5,0-9.1,2.5-12.2,6.7-2.1,2.8-3.8,7.2-2.8,10.9,0,.5.3,1,.5,1.4,0,.4,0,.8.2,1.2.6,2.2,2,3.8,4.1,4.7,1.2.5,2.4.8,3.7.8s3.8-.5,5.7-1.4v.7c0,.5.5.8.9.9.2,0,.3,0,.5,0l-.3.3c-.3.3-.5.8-.4,1.3s.5.8.9.9c1.9.5,2.9.7,4.8,1.1h.2c.3,0,.7,0,.9-.4,1.3-1.2,2-1.9,3.1-3,1.4.2,2.5.4,3.7.5,0,.3,0,.7.2,1s.5.5.9.6c0,.3-.2.6-.3,1s0,.8.2,1.1.6.5.9.6c2.1.2,3.2.3,5.3.4h0c.6,0,1.1-.4,1.2-.9.2-.8.4-1.5.6-2.3h0c.2.5.6.8,1.1.8h0c0,.2-.3.4-.4.6-.2.4-.3.9,0,1.3.2.4.6.7,1.1.7,2,0,3.1,0,5.2,0h0c.4,0,.9-.2,1.1-.6.6-1,1.2-2,1.8-3,0,.2,0,.3.2.5s.4.4.7.4c0,.4-.2.7-.2,1.1s0,.8.3,1.1c.2.3.6.5,1,.5h0c1.7,0,2.6,0,4.4,0,.3,0,.7-.2.9-.4.8-.9,1.7-1.8,2.5-2.7.2.2.5.3.8.3l-.4.7c-.2.4-.2.9,0,1.3.2.4.7.6,1.1.6h0c2.3,0,3.3-.2,5.5-.3.4,0,.8-.3,1-.7,3.7-6.6,5.5-9.5,2.6-4.3-.2.4-.2.9,0,1.3.2.4.6.6,1.1.6,0,.2-.3.5-.4.7-.2.4-.2.9,0,1.3.2.4.6.6,1.1.6s0,0,0,0c4.4-.4,8.9-.8,14-1.2.4,0,.8-.3,1-.7l2.3-4.5c.2-.4.2-.9,0-1.3-.2-.3-.6-.6-1-.6l.4-.7c.2-.4.2-.9,0-1.3v-.2c.5,0,1-.1,1.6-.2.4,0,.8-.3,1-.7l2.2-4.2c.2-.4.2-.9,0-1.3-.2-.3-.6-.5-1-.6l.4-.7c.2-.3.2-.7,0-1,.8,0,1.7-.2,2.8-.3h0c.4,0,.8-.3,1-.7l.5-.9,1.8-3.4c.2-.4.2-.9,0-1.3-.2-.3-.6-.5-1-.5l.4-.5h-.1ZM16.3,24.9s.2.2.3.2c.2,0,.3.2.5.2h0l-.3.4c-.2.3-.3.6-.2.9,0,0-.2,0-.3-.1-.2,0-.4-.2-.6-.3,0-.4.3-.9.6-1.4h0s0,.1,0,0ZM24.4,21c-.7-.2-1.4-.5-2.1-.7.4,0,.9,0,1.3.2.4.1.6.3.8.5ZM134.2,12.2c-1.3-2.1-3.5-3.3-6.1-3.3s-.8,0-1.2,0c-7.1.8-14.6,6.5-18,13.6-1.4,2.9-1.5,6.4-.3,9,.2,1.3.6,2.5,1.2,3.5,1.3,2,3.4,3.1,6,3.1s.8,0,1.2,0c7.7-.9,15.1-7.7,18.1-13.7,1.5-2.9,1.6-6.3.4-8.8-.2-1.2-.5-2.4-1.1-3.4h-.2,0ZM126.4,21.1c-1.3,2.8-4.1,6.2-8,6.6h-.5c-.4,0-.7,0-.9-.1,0-.5.4-1.1.7-1.8,1.4-2.9,4.2-6.1,8.1-6.5h.5c.3,0,.6,0,.8.1,0,.5-.3,1.1-.6,1.8h0ZM197,20.7c-.5-3.2-2.3-6.1-5.7-7.3-3.1-1.1-4.8-1.6-8.1-2.4h-.3c-.5,0-1,.3-1.2.9-2.9,8.8-5.8,17.5-8.6,26.2v1c0,.3.4.5.8.6h.2c0,.3-.2.6-.3.9v1c0,.3.4.5.8.6,2,.6,2.9,1,4.9,1.7h.5c.2,0,.4,0,.6,0,.3-.2.6-.4.7-.8l1.7-5.4c0,1.6.2,3.2.3,4.8,0,.4.3.8.6,1v1.6c0,.5.3.9.7,1.1,2.2,1,3.2,1.5,5.3,2.7.2,0,.4.2.6.2s.5,0,.7-.2c.4-.3.6-.7.6-1.2-.3-4.1-.7-8.1-1.1-12.1,2.9-.5,5.3-2.9,6.4-6.7.8-2.7.8-5.7-.3-8.2h.2q0,.1,0,.1ZM187.6,22.9c.5.2,1,.3,1.7.6h0c-.3,1.1-.8,1.6-1.3,1.6s-.4,0-.6-.1c-.2,0-.3-.1-.4-.2l.6-2h0ZM173.3,34.8l-1.8,5.2c-.2.5-.7.9-1.2.9s-.2,0-.3,0c-4.1-1.1-8.3-1.9-12.7-2.5-.4,0-.7-.3-.9-.6s-.2-.8,0-1.1l.3-.9h0c-.4,0-.7-.3-.9-.6s-.2-.7,0-1.1c2.4-6.4,4.8-12.8,7.1-19.2-5.1,7.3-10.3,14.7-15.5,22-.2.3-.6.5-1.1.5h0c-2.6,0-3.9-.2-6.7-.2s-.7-.2-.9-.4c-.2-.3-.4-.6-.3-1v-1.3s-.3-.2-.4-.4c-.2-.3-.4-.6-.3-1,.7-7.3,1.4-14.5,2.2-21.7l.2-2.1c0-.6.6-1.1,1.2-1.2,2.3-.1,3.4-.2,5.6-.3h0c.4,0,.7.2.9.4.3.3.4.7.3,1v1.2c.2,0,.4.2.5.3.3.3.4.7.3,1-.3,2.9-.7,5.7-1,8.6,3.1-4.5,5.9-8.5,8.5-12.2.2-.3.6-.6,1.1-.6h0c2.2,0,3.3,0,5.4.2.5,0,.9.3,1.1.7.2.4.2.9,0,1.3,0,.2-.3.4-.4.6h0c.3,0,.6.2.8.4.2-.6.5-1.3.7-1.9.2-.5.7-.8,1.2-.8s0,0,0,0c4.3.3,8.5.9,12.5,1.7.4,0,.7.3.9.6s.2.7,0,1.1l-.3.9h0c.4,0,.7.3.9.6s.2.7,0,1.1l-1.7,4.9c-.2.5-.7.9-1.2.9s-.2,0-.3,0c-2.5-.5-4-.8-6.3-1.1v.2c1,.2,2.1.4,3.5.7.4,0,.7.3.9.6.2.3.2.7,0,1.1l-.3.9h0c.4,0,.7.3.9.6.2.3.2.7,0,1.1v.3l-1.7,4.5c-.2.5-.7.9-1.2.9s-.2,0-.3,0c-2.2-.5-3.5-.8-5.6-1.1l-.3.9c1.5.3,2.8.6,4.7,1.1.3,0,.6.3.8.6.2.3.2.7,0,1l-.3.9h0c.3,0,.7.3.8.6.2.3.2.7,0,1l.6.2h0Z"/>
    <path class="st1" d="M25.2,30.4c-2.6,2.4-6.4,4.3-10,4.3s-2.2-.2-3.3-.7c-5.5-2.3-3.9-9.2-.8-13,2.7-3.4,6.9-5.9,11.4-5.9s2.3.2,3.6.6c3.9,1.2,5.4,4.2,3.6,8.2-1.9-.5-2.8-.7-4.8-1.2.3-1.4-.4-2.4-1.9-2.9-.6-.2-1.2-.3-1.8-.3-2.1,0-4.5,1.2-6.3,3.6-2.5,3.2-2.5,6.1.4,7.2.5.2,1.1.3,1.7.3,1.6,0,3.3-.8,4.9-2.1-2.1-.7-3.2-1-5.2-1.8,1-1.3,1.5-1.9,2.5-3.2,3.5,1.3,5.3,1.9,9.2,2.8-1.2,1.7-1.8,2.6-3.2,4.2h0ZM49.2,20.1c-2,6.7-4.1,13.4-6,20.1-2.1,0-3.3-.2-5.4-.4.5-1.5.7-2.2,1.2-3.6-3.1-.3-4.6-.5-7.4-1-1.4,1.3-2.1,2-3.7,3.2-1.9-.4-3-.6-4.9-1,6.9-5.9,13.8-11.8,20.7-17.8,2.1.2,3.3.3,5.5.5h0ZM42.8,24.9c-3,2.7-4.4,4.1-7.4,6.8,1.9.3,3,.4,4.9.6,1-2.9,1.5-4.5,2.4-7.3h.1ZM78.5,19.4c-5,4.9-10,9.7-15,14.5.9-4.6,1.8-9.1,2.8-13.7-2.4,0-3.7,0-6.1.2l-13.3,20h5.3c2.6-4.1,5.4-8.2,8-12.3-1,4.1-2,8.2-3.1,12.3,1.7,0,2.6,0,4.4,0,4.3-4.3,8.5-8.6,12.8-12.8-2.5,4.2-5.2,8.4-7.7,12.6,2.2,0,3.4-.2,5.6-.3,4.2-6.9,8.3-14,12.6-20.9-2.5.3-3.9.4-6.3.6,0,0-.1,0-.1,0ZM101.9,20.8c.9-1.6,1.3-2.5,2.2-4.1-4.6.6-9.2,1-13.8,1.6-4.2,7-8.2,14.1-12.4,21.1,4.8-.4,9.6-.8,14.2-1.1.9-1.7,1.4-2.6,2.3-4.3-3.5.3-5.2.5-8.5.8,1.1-1.9,1.6-2.9,2.7-4.8,3-.3,4.5-.5,7.5-.8.9-1.6,1.3-2.5,2.2-4-3,.3-4.5.5-7.4.8,1-1.7,1.4-2.6,2.4-4.3,3.4-.4,5-.6,8.3-1h.1Z"/>
    <path class="st3" d="M128.1,10.3h-1c-7,.8-14,6.6-17,12.9-2.2,4.6-1,11.2,4.9,11.2s.7,0,1,0c6.9-.8,14-7,17.1-13,2.4-4.9.7-11-5-11h0ZM127.6,21.6c-1.6,3.7-5,7-9.1,7.3h-.6c-3.1,0-4-2.5-2.2-6.3,1.7-3.6,5-6.8,9.1-7.3h.7c2.9,0,3.8,2.4,2.1,6.3ZM162.5,9.2c-5.7,8.1-11.4,16.2-17.1,24.3-2.7,0-4-.2-6.7-.2.8-8,1.6-15.9,2.4-23.9,2.2-.1,3.4-.2,5.6-.3-.7,6-1.4,12.1-2.1,18.1,4.2-6.1,8.4-12.1,12.6-18.2,2.2,0,3.2,0,5.4.2h-.1,0ZM167.5,19.8c2.7.4,4,.6,6.7,1.2-.7,1.9-1,2.9-1.7,4.9-2.7-.6-4-.8-6.7-1.3-.8,2.2-1.2,3.4-2,5.7,3.1.5,4.6.8,7.6,1.6-.7,2.1-1.1,3.1-1.8,5.2-4.2-1.1-8.6-2-12.9-2.5,3.1-8.4,6.2-16.7,9.3-25.1,4.1.3,8.3.9,12.4,1.7-.7,1.9-1,2.9-1.7,4.9-3-.6-4.5-.9-7.5-1.3-.7,2-1.1,3-1.8,5.1h.1q0-.1,0,0ZM190.9,14.6c-3.1-1.1-4.7-1.6-7.9-2.4-2.9,8.7-5.8,17.5-8.6,26.2,2,.6,3,1,4.9,1.7,1.3-4.2,2-6.3,3.3-10.3.5.2.7.3,1.2.4.3,4.1.6,8.1.9,12.2,2.2,1,3.3,1.6,5.4,2.8-.4-4.5-.8-8.9-1.2-13.4h.2c3.3,0,5.4-2.6,6.4-5.9,1.3-4.3.2-9.6-4.5-11.3h-.1,0ZM190.6,24c-.5,1.6-1.3,2.5-2.5,2.5s-.7,0-1.1-.2c-1.2-.5-1.8-.7-3-1.1.8-2.6,1.3-3.9,2.1-6.5,1.2.4,1.8.6,2.9,1,1.8.7,2.2,2.3,1.6,4.3Z"/>
  </g>
</svg>