<?xml version="1.0" encoding="UTF-8"?>
<svg id="Lag_2" data-name="Lag 2" xmlns="http://www.w3.org/2000/svg" xmlns:xlink="http://www.w3.org/1999/xlink" viewBox="0 0 89.5 112.3">
  <defs>
    <style>
      .cls-1 {
        fill: none;
      }

      .cls-2 {
        fill: #d82e70;
      }

      .cls-3 {
        clip-path: url(#clippath-1);
      }

      .cls-4 {
        clip-path: url(#clippath-3);
      }

      .cls-5 {
        clip-path: url(#clippath-4);
      }

      .cls-6 {
        clip-path: url(#clippath-2);
      }

      .cls-7 {
        fill: #d7bb45;
      }

      .cls-8 {
        clip-path: url(#clippath);
      }
    </style>
    <clipPath id="clippath">
      <rect class="cls-1" y=".1" width="89.5" height="112.2"/>
    </clipPath>
    <clipPath id="clippath-1">
      <rect class="cls-1" x=".3" y="76.1" width="89.2" height="36"/>
    </clipPath>
    <clipPath id="clippath-2">
      <rect class="cls-1" x=".3" y="109.4" width="89.2" height="2.7"/>
    </clipPath>
    <clipPath id="clippath-3">
      <rect class="cls-1" x="4.3" y="14.7" width="81.3" height="66.7"/>
    </clipPath>
    <clipPath id="clippath-4">
      <rect class="cls-1" x="5" y="76.1" width="79.3" height="5.2"/>
    </clipPath>
  </defs>
  <g id="Lag_1-2" data-name="Lag 1">
    <g class="cls-8">
      <path class="cls-2" d="M88.6,109.7c-.2-1.2-.5-2.4-.7-3.5-.3-1.2-.5-2.4-.8-3.7-.6-8-1.8-15.9-3.6-23.7h.6c.4-.1.8-.3,1.1-.6h0c.1.6.3,1.2.4,1.7.2.9,1.6.5,1.4-.4-.1-.5-.2-.9-.3-1.4.4-.1.7-.5.5-.9-.5-1.3-1-2.6-1.5-3.9-1.3-6.8-2.5-13.6-3.7-20.4-.1-.5-.4-1-.8-1.3v-.5c.1-1.6-1.4-2.9-2.9-2.9-2,0-4.1-.1-6.1-.2,0-7.7-.9-15.3-2.6-22.8,0-.3-.3-.4-.5-.5-2.3-8.9-8.3-16.7-16.4-21.1-.5-.3-1.1,0-1.1.6v2s-.1,0-.2.1c0-.9,0-1.8-.1-2.7.2-.2.3-.5.3-.8,0,0,.2-.2.2-.3,0-.4-.1-.8-.5-.9-.3-.1-.6-.2-1-.4-.3-.1-.7,0-.8.3v.1c-1.9-.6-4-.8-5.9-.5-.9.2-1.8.5-2.4,1.1h-.3c-.4,0-.8.3-.7.7v1.2c-.4,0-.8,0-1.2.1-.8,0-1.5.3-2.1.9l-.1.2c-6.7.8-12.5,5.6-15.2,11.8-2.5,5.5-3,11.3-2.9,17.1v.8c0,1.2.2,2.5.3,3.7v2.9c-.3.3-.5.7-.6,1.1-.2,1.7-.4,3.4-.4,5.2-.4,0-.7,0-1.1.2h-4.9c-1.2,0-2.6.9-2.8,2.1-.5,3.2-1,6.3-1.5,9.5-.5,2.4-1,4.8-1.6,7.2-.4,1.4-.7,2.8-.9,4.3-.1.5-.2,1-.3,1.6-.2.3-.4.6-.4,1-.2.8-.4,1.7-.6,2.5-.3,1.3.3,2.5,1.2,3.1-.8,4.7-1.5,9.4-2.3,14.2-.5,3.4-1.2,6.8-1.6,10.2-.1,1.1-.1,2.3,0,3.5-.2,1.1-.5,2.3-.7,3.4,0,.4.2,1,.7.9,1.3,0,2.6-.2,3.9-.3h2.1c4-.3,8.1-.7,12.2-1,.5.5,1.1.8,2,.8,6.8,0,13.6,0,20.4-.1,1.4.9,3.3.8,5,.8,5.2-.2,10.4-.4,15.6-.7.5.5,1.2.8,2,.9,4.4.3,8.8.5,13.2.8.7,0,1.5-.3,2-.8.8.3,1.7.5,2.6.5.5,0,1,0,1.5-.2,0,0,.2.1.4.1h3.6c1.2-.2,1.6-1.2,1.4-2.3l-.5-.4ZM1.6,109.8v-.3c0,.1.2.2.2.3h-.3.1ZM59,14.5l.1.1h0s-.1,0-.2-.1h.1ZM54,10.7c-.4-.2-.8-.5-1.2-.7h0c.3.1.7.3,1,.5h.3l.6.3c-.2,0-.4-.1-.7-.2v.1ZM51.5,8.3v-.9h0v.9ZM53.5,12.1c.1,0,.3.2.4.3-.2,0-.3-.1-.5-.2h.1v-.1ZM64.8,33.4c-.1,0-.2.1-.3.2-.2.3-.4.5-.6.8,0-.1.1-.2.2-.4.3-.4.5-.8.8-1.2v.5l-.1.1ZM61.8,13.2v-.2c1.4,1.7,2.5,3.6,3.5,5.6-1.1-1.9-2.3-3.7-3.6-5.4h.1ZM49.9,5v.7-.6h0v-.1ZM49.3,13.4h.7s-.1.1-.2.2h0c-.1,0-.3-.1-.4-.2h-.1ZM48.4,7h-.2v-.4c0,.2.1.3.2.5v-.1ZM43.3,15.2h.2-.3.1ZM44,10.9h.2c.2.3.5.6.7.9,0,0,.1.2.2.3-.4-.3-.7-.7-1-1l-.1-.2ZM44.1,2.5s0,.1-.1.2v.1h0s0-.2-.2-.3h.4-.1ZM27.8,47.8c-.2-.8-.3-1.6-.4-2.4,0-.5-.3-.9-.7-1.2-.4-2-.8-3.9-1.5-5.8,0-.2-.1-.3-.2-.4v-1.6c0-.7-.3-1.3-.7-1.8.3,0,.6.2.9.1.7,1.3,1.4,2.6,2.3,3.8,1,1.6,2.2,3,3.6,4.2,2,2.7,4.8,4.7,8,5.6-3.8,0-7.6,0-11.4-.5h.1ZM41.9,48.1v-.3c.5,0,.9.1,1.4.2-.5,0-1,0-1.4.1ZM45.6,46.1h-.2c0-.1.1-.3.2-.4h.2c0,.1-.1.2-.1.3s0,0,0,0l-.1.1ZM42.6,42.1c-.2,0-.4,0-.5.2-2.5-1.3-5-2.7-7.5-4.1-.5-.4-1-.8-1.6-1.1-2-2.7-3.6-5.7-4.7-8.9h0v-1c.2-1.5.6-3,1.1-4.4.7-.3,1.2-1,1.5-1.8.1-.4.3-.8.4-1.1,0,0,0-.2.1-.3,0-.2,0-.1-.1.2,0-.1.2-.4.2-.5.3-.6.6-1.2,1-1.8,2.3-1.5,5-2.5,7.7-3.1.2,1.3,1.5,2.2,2.8,2.3,1,0,2-.3,2.9-.7.3.2.7.2,1,.2.5,0,.9-.3,1.1-.7h.1c.3,0,.5-.2.7-.5h1c.2,0,.4,0,.6-.3h.1c.6-.3.9-.9,1-1.5.3.3.8.3,1,0,6.1,2.4,10.4,7.6,11.9,13.7,0,.3-.1.7-.2,1-.8,2.7-1.9,5.3-3.4,7.7-.5.5-1.1,1.1-1.7,1.5-4.6,3.8-10.7,5.5-16.6,4.8l.1.2ZM60.3,48.5c-1.4,0-2.9,0-4.3.1-2.2,0-4.6-.1-6.9.3,0,0-.1-.2-.2-.3,2.8-.5,5.3-1.8,7.6-3.6,2.5-.5,4.9-1.5,7-2.8-1.1,2.1-2.1,4.1-3.2,6.2v.1ZM65.2,48.5h-.1c0-.1.1-.3.2-.4v.4h-.1ZM65.3,39c-.6.6-1.2,1.1-1.9,1.6.5-.4.9-.9,1.3-1.4.2-.1.4-.3.6-.4v.2h0ZM69.2,32.4v-1.1c0,.4.1.9.1,1.3v-.2h-.1ZM69.5,36.9v-.8h0c0,1,0,2,.1,3.1,0-.8-.1-1.6-.2-2.3h.1ZM70.7,48v-.7.7h0ZM85.6,110.5c.1,0,.2-.2.3-.3,0,.1.2.2.3.3h-.6Z"/>
    </g>
    <g class="cls-3">
      <path class="cls-7" d="M1.2,105.6c.6-3,1.3-7.1,1.9-11.8.6-4.6,1-8.8,1.2-11.9.1-1.3.2-2.4.3-3.3,1.1,0,5.2-.1,11.3-.2h28.2c11,0,20.9.1,28.2.2,6,0,10.1.2,11.3.2h0v.3-.2h0c0-.1.1-.1.1-.1,0,.3,0,.6.1,1.3,0,.9.2,2.1.3,3.5.3,3,.6,7.1,1.3,11.6.6,4.5,1.4,8.6,2,11.5.3,1.4.5,2.6.7,3.5.1.7.2,1,.2,1.3,0-.3,0-.6-.1-1.3,0-.9-.2-2.1-.3-3.5-.3-3-.6-7.1-1.3-11.6-.6-4.5-1.4-8.6-2-11.5-.3-1.5-.5-2.6-.7-3.5-.1-.7-.2-1-.2-1.3h-.1s.2-.2.1-.2h0s.2,0,.3.1h.8c.6,0,1.1-.3,1.5-.5l.6-.3s-.2,0-.6-.2c-.4-.1-.9-.3-1.5-.2-.3,0-.6.1-.8.2-.2,0-.2.1-.4.2h0v.7h0c-1.2,0-5-.2-11.3-.6-7.2-.4-17.2-.9-28.2-.9s-21,.3-28.2.7c-6.3.3-10.1.5-11.3.6v-.3c.3,0,.5-.2.7-.3.3-.2.4-.2.4-.2,0,0-.2,0-.4-.3-.2-.1-.4-.3-.7-.3v-.3.3h-.3c-.4,0-.8.2-1,.3-.3.2-.4.2-.4.2,0,0,.2,0,.4.3.3.2.6.4,1,.4h.2v.3h-.2.2c-.2.8-.4,1.9-.6,3.2-.6,3-1.3,7.1-1.9,11.8-.6,4.6-1,8.8-1.2,11.9-.1,1.5-.2,2.7-.3,3.6,0,.7-.1,1.1-.1,1.3,0-.3,0-.6.2-1.3.2-.9.4-2.1.7-3.5l-.1.1Z"/>
    </g>
    <path class="cls-7" d="M4.1,73.5c.7-2.6,1.7-6.2,2.5-10.2.9-4,1.4-7.7,1.8-10.4.2-1.3.4-2.4.5-3.2,0-.6.2-.9.2-1.2,0,.2-.1.5-.3,1.1-.2.8-.5,1.8-.8,3.1-.7,2.6-1.7,6.2-2.5,10.2-.9,4-1.4,7.7-1.8,10.4-.2,1.3-.4,2.4-.5,3.2-.1.6-.2.9-.2,1.2,0-.2.1-.5.3-1.1.2-.8.5-1.8.8-3.1Z"/>
    <path class="cls-7" d="M14,48.7c1.5,0,2.9-.3,3.9-.5s1.6-.3,1.6-.3c0,0-.5,0-1.4-.1,0-.3,0-1,.1-2.3.1-1.5.2-3.7.4-6.5.2-2.7.4-6,.6-9.6.3-3.6.7-7.5,2.2-11.3s4-6.9,6.8-9.1c2.8-2.2,5.8-3.4,8.5-4,1.1-.2,2.1-.4,3.1-.4v.6c0,.8.1,1.6.2,2.3-.8.2-1.6.4-2.5.7-2.3.8-4.9,2.2-7.2,4.5-2.3,2.3-4.1,5.6-5.1,9.2-1,3.6-1.1,7.2-.9,10.4.3,3.2.9,6,1.5,8.4.6,2.3,1.1,4.2,1.5,5.5.1.5.3.9.3,1.2h-.4.4c.1.4.2.6.2.8,0,0,0-.3-.2-.8h1c1,.1,2.3.2,4,.4,3.3.3,8,.7,13.1.8s9.8,0,13.1-.3h.3c-.6.7-1.1,1.5-1.7,2.4-.6,1-1.3,2.2-1.7,3.5-.4,1.3-.7,2.7-.8,4.2,0,2.9.8,5.7,2.1,7.8,1.3,2.1,3.1,3.6,4.7,4.5s3.1,1.4,4,1.6c.2,0,.4,0,.6.1-.7.7-1.2,1.2-1.6,1.5s-.5.4-.6.5c.1,0,.3-.2.6-.5.4-.3,1-.8,1.7-1.5h.7c-.1,0-.4,0-.7-.1.7-.7,1.6-1.6,2.4-2.8.9-1.1,1.8-2.6,2.5-4.2.8-1.7,1.4-3.6,1.8-5.7.2-1.1.3-2.2.4-3.3,0-1.1,0-2.3-.1-3.5,0-1.5-.2-3.1-.3-4.7.9.1,2.1.3,3.4.3h2c.5,0,.8.1,1.1.3v.3c.2.8.4,1.9.7,3.3.6,2.8,1.4,6.7,2.5,10.9,1.1,4.3,2.3,8,3.2,10.8.4,1.3.8,2.5,1,3.2.2.6.3,1,.4,1.2,0-.2-.1-.6-.3-1.2-.2-.8-.4-1.9-.7-3.3-.6-2.8-1.4-6.7-2.5-11s-2.3-8-3.2-10.8c-.3-.8-.5-1.5-.7-2.1,0,0,.1-.1.2-.3.1-.3.2-.7-.1-1.2-.1-.2-.3-.5-.6-.7,0,0-.1,0-.2-.1h0c-.2-.1-.5-.3-.8-.3-.7-.2-1.4-.2-2.2-.2-1.3,0-2.5.2-3.4.3,0-.7-.1-1.5-.2-2.2-.2-2.6-.5-5.3-.8-8-.6-5.5-1.6-10.8-3.3-15.3s-4.2-8.3-6.7-10.9c-1.3-1.3-2.5-2.4-3.7-3.3-1.2-.9-2.3-1.5-3.2-1.9-.9-.4-1.6-.8-2.2-.9-.4-.2-.6-.2-.8-.3.1,0,.3.1.8.3s1.2.5,2.1,1,1.9,1.1,3.1,2c1.1.9,2.3,2,3.5,3.4,2.4,2.7,4.6,6.5,6.1,10.9,1.6,4.5,2.5,9.7,3.1,15.1.3,2.8.6,5.4.8,8,0,.8.2,1.5.2,2.3-.6,0-.9.1-.9.1,0,0,.3,0,.9.1.2,1.7.4,3.4.5,5,0,1.2.2,2.3.2,3.5,0,1.1,0,2.2-.2,3.2-.3,2.1-.9,4-1.6,5.6-.7,1.7-1.5,3.1-2.3,4.3s-1.6,2.1-2.3,2.9q-.47.53,0,0c-.2,0-.4,0-.6-.2-1-.3-2.4-.9-3.8-1.9s-3-2.6-4.2-4.6c-1.1-2-1.8-4.6-1.8-7.3s.9-5.1,2.1-7.2c.6-1,1.2-2,1.8-2.9,1.1,0,2-.1,2.7-.2h1.5-3.9c.5-.8,1-1.5,1.5-2.2,1-1.5,1.8-2.7,2.4-3.5.3-.3.6-.6.9-.9.5-.7.9-1.3,1.1-1.7s.3-.6.3-.6c0,0-.1.2-.4.6s-.7.9-1.3,1.4c0,0-.1,0-.2.1.2-.3.5-.7.8-1.2.4-.7.9-1.5,1.3-2.4s.8-2,1.2-3.1c.3-1.2.6-2.4.7-3.8.1-1.3.2-2.8,0-4.3s-.5-3-1-4.5-1.2-2.9-2-4.1-1.7-2.4-2.6-3.4-1.9-1.8-2.9-2.5-1.9-1.3-2.8-1.8-1.7-.8-2.5-1.1-1.4-.5-1.9-.6c-.5-.2-1-.2-1.3-.3h0c0-1.6-.1-3.1-.1-4.4V1.5h.6c-.2,0-.4,0-.6-.1V0c0,.2,0,.5-.2,1v.4h-.2c-.6-.1-1.5-.3-2.7-.5-1.1-.2-2.5-.3-4.1-.2-.8,0-1.6,0-2.4.2-.4,0-.8,0-1.3.3-.3.1-.5.3-.8.5-.2.3-.3.6-.4.9-.1.6,0,1,0,1.4v.4c-.9,0-2,0-3.1.2-2.7.4-5.9,1.5-8.9,3.7s-5.8,5.4-7.3,9.4c-1.6,4-1.9,8.1-2,11.7-.1,3.6,0,6.9-.1,9.6v8.8h-.2c-1-.1-2.4-.3-3.9-.2-1.5,0-2.9.3-3.9.5s-1.6.3-1.6.3c0,0,.6,0,1.6.2,1.1.2,2.5.3,4,.3l.5-.2ZM80.1,48.9c.3.3.4.7.4,1v.3c-.1-.4-.3-.8-.4-1.2v-.2l.1.1h-.1ZM32.5,47.6h-5c-.3-1.2-.8-3.6-1.4-6.8-.3-1.5-.5-3.2-.7-5.1.4,1.3,1,2.8,2,4.3,1,1.6,2.3,3.1,3.9,4.5,1.7,1.3,3.5,2.3,5.2,3,.2,0,.3,0,.4.2h-4.4v-.1ZM61.4,45.7c-.6.7-1.3,1.5-1.9,2.4h-.7c-1.9,0-4.3-.2-6.9-.3.4-.2.9-.4,1.6-.7,1.5-.6,3.7-1.1,6.1-2,1.2-.5,2.3-1,3.2-1.7.3-.2.6-.5.9-.7-.6.8-1.4,1.7-2.4,2.9l.1.1ZM51.7,8.3c.3,0,.7.2,1.2.4s1.2.4,1.9.8,1.5.8,2.4,1.3c.8.5,1.7,1.2,2.6,1.9.9.8,1.8,1.6,2.6,2.6.8,1,1.7,2.1,2.3,3.3.7,1.2,1.3,2.5,1.8,3.9s.8,2.8,1,4.2.2,2.8.1,4.1-.3,2.5-.5,3.7c-.3,1.1-.5,2.2-.9,3.1-.3.9-.7,1.8-1.1,2.5-.3.6-.6,1.1-.9,1.5-1.2.9-3.1,1.8-5.1,2.5-2.3.9-4.5,1.7-5.9,2.7-.7.4-1.2.8-1.6,1.1-1.9,0-3.9-.1-6-.2h-6.3c-2.3-.8-4.9-2.1-7.3-4.1-3.1-2.6-5.2-5.7-6.3-8.2-.2-.4-.4-.8-.5-1.2,0-.6,0-1.1-.1-1.7-.1-3.1.1-6.6,1-10.1.9-3.4,2.5-6.6,4.6-8.8,2.1-2.3,4.5-3.8,6.7-4.8.8-.4,1.6-.6,2.4-.8.1,1.4.2,2.7.3,3.7.1,1.1.2,2,.3,2.7v.1h-1.2c-1.2,0-2.7.4-4.2,1.1-1.5.7-3.2,1.9-4.5,3.7s-2.2,4.1-2.3,6.7c-.2,2.6.4,5.4,1.8,8s3.6,4.8,6.3,6.4c2.7,1.6,5.9,2.6,9.3,2.8,3.3.2,6.7-.4,9.5-1.8,2.9-1.4,5.2-3.5,6.8-6,1.6-2.5,2.3-5.3,2.2-7.8,0-2.6-.7-4.9-1.8-6.8s-2.4-3.3-3.8-4.4c-1.4-1-2.7-1.7-3.8-2.1-1.1-.4-2-.6-2.6-.7h-.2v-.5c-.2-1.7-.3-3.2-.4-4.7h0l.2-.1ZM40.8,2.8c0-.3.1-.4.4-.5s.7-.2,1.1-.3c.8-.2,1.6-.3,2.3-.4,1.5-.2,2.8-.3,3.9-.3,1.3,0,2.3,0,2.9.1-.1.6-.2,1.4-.4,2.3-.3,2.3-.6,5.6-.2,9.2,0,.4,0,.9.2,1.3h-.1c-.8.1-1.6.2-2.4.3-1.5.2-2.9.5-4.1.7-1.1.2-2.1.4-2.7.5-.7,0-1,.2-1,.2h1c.7,0,1.6,0,2.8-.1,1.2,0,2.6,0,4.1-.2.8,0,1.6-.1,2.4-.2h.5c.2,0,.4-.1.6-.1h.1v-1.1c-.1-.3-.1-.5-.2-.8h.2c.6.1,1.5.3,2.6.8,1.1.4,2.4,1.2,3.7,2.2,1.3,1.1,2.6,2.5,3.5,4.4s1.5,4.2,1.5,6.6-.8,5.1-2.3,7.3c-1.5,2.3-3.8,4.2-6.5,5.5s-5.8,1.8-9,1.6c-6.3-.4-12.1-3.8-14.9-8.6-1.3-2.4-1.9-5-1.9-7.5s.8-4.7,2-6.4,2.7-3,4.2-3.7c1.5-.8,2.9-1.1,4.1-1.3h1.2v.8-.8c.6,0,1.1,0,1.5.1.5.1.8.2.9.2-.1,0-.4,0-.9-.2-.4,0-.9-.1-1.5-.2h0c0-.8,0-1.7.1-2.8,0-1.1,0-2.5.1-3.9.8-.2,1.6-.3,2.2-.3h2-2.1c-.6,0-1.4,0-2.2.2v-2.8h2.2c.8,0,1.3.2,1.7.3.3,0,.5.1.6.1-.1,0-.3,0-.6-.1-.4,0-1-.2-1.7-.3-.6-.1-1.4-.2-2.2-.2v-1.5l.3-.1Z"/>
    <g class="cls-6">
      <path class="cls-7" d="M85.9,111.9c-2.3-.1-5.5-.3-9.5-.5s-8.8-.5-14.1-.7c-5.3-.2-11.2-.4-17.3-.5-3.1,0-6.1-.1-9-.2-2.9,0-5.7-.1-8.4,0-5.3,0-10.1.3-14.2.5-4,.2-7.3.4-9.5.6-2.2.1-3.2.2-3.5.2,0,0,5-.3,13-.3h14.1c2.7,0,5.4.1,8.4.2,2.9,0,5.9.2,9,.3,6.1.2,12,.2,17.3.3,5.3,0,10.1.2,14.2.3s7.3.1,9.5.2h3.5c-.3,0-1.3,0-3.5-.2v-.2Z"/>
    </g>
    <path class="cls-7" d="M28.3,72.9c1.4-.7,3-1.8,4.2-3.6s1.9-4.1,2-6.5c0-2.4-.5-4.8-1.4-6.6-.9-1.9-1.9-3.4-2.9-4.7-1-1.2-1.9-2.1-2.5-2.7-.5-.5-.8-.8-1-.9,0,0,.3.3.9,1,.5.7,1.3,1.6,2.2,2.9.8,1.3,1.7,2.9,2.4,4.8.7,1.9,1.1,4,1.1,6.3s-.6,4.4-1.6,6c-1,1.7-2.3,2.9-3.6,3.7-.7.4-1.3.7-1.8.9s-.9.3-1.3.3c-.1,0-.3-.2-.4-.3-.7-.5-1.6-1.2-2.6-2.2s-.5-.5-.8-.8-.5-.6-.8-.9c-.5-.7-1.1-1.4-1.6-2.2s-1-1.6-1.5-2.5-.9-1.9-1.3-2.9-.7-2-.9-3c-.2-1-.4-2-.5-2.9,0-.9-.2-1.8-.1-2.7,0-.8.2-1.6.4-2.2.5-1.3,1.4-2.1,2.2-2.4.4-.2.7-.2.9-.2h.2-.2c-.2,0-.5,0-.9.2-.8.2-1.9.9-2.6,2.3-.3.7-.6,1.5-.7,2.4s-.1,1.8-.1,2.8.2,2,.3,3.1c.2,1.1.5,2.1.9,3.2.4,1.1.9,2.1,1.4,3s1.1,1.8,1.7,2.6,1.2,1.5,1.8,2.1c.6.6,1.2,1.1,1.8,1.6,1.1.9,2.2,1.6,2.9,2,.1,0,.3.2.4.2h-1.5,1.6c.3.1.4.2.6.3-.1,0-.3-.2-.5-.3.4,0,.8,0,1.2-.2.6-.1,1.2-.3,1.9-.7l.1-.3Z"/>
    <path class="cls-7" d="M67.7,104.8h0c.1,0,.2-.2.3-.3q.07-.07,0,0c0,.2.2.3.3.5.3.3.7.6,1.1.7.9.3,1.8.1,2.7,0,2-.4,3.7-1,4.9-1.4.6-.2,1.1-.3,1.5-.3h.6s-.2,0-.6-.1c-.4,0-.9-.1-1.6,0-1.3.1-3.1.3-5.1.7-.8.2-1.6.3-2.2.2s-.6-.2-.8-.3c-.1,0-.2-.2-.3-.3.3-.1.5-.3.8-.3.8-.3,1.4-.3,1.4-.3h-1.5c-.3,0-.6.1-.9.2,0-.1-.1-.2-.1-.4-.1,0-.2,0-.2-.1h0l-.2.2v.3h0v.2h0v.1c-.3.1-.6.3-.9.5-.2.1-.3.2-.4.3h0v-.2c-.3-.3-.4-.6-.6-.9s-.4-.6-.5-.9c-.3-.4-.5-.9-.8-1.3,0-.1-.2-.3-.3-.4l-.2-.2-.2-.2s-.1-.2-.2,0c-.3.4-.5.6-.6,1.2v1.4c0,.3.1.5,0,.8,0,.5-.1.9-.4,1-.2.2-.6,0-1-.2-.3-.2-.7-.5-1-.5-.4-.1-.7,0-.8.3-.1.2,0,.4,0,.5h0c0-.1,0-.3.1-.5s.4-.3.7-.2c.3.1.5.4.8.7s.3.3.6.4.6.2.9,0c.7-.3.9-1,1-1.6v-1.3.1l.3.5c.2.3.4.6.6.9.2.3.4.6.6.8.1.2.3.4.4.5.2.3.3.5.5.7l.4-.5.3-.4c.2-.2.2-.3.4-.4.1-.1.2-.2.3-.3v.3c0-.1,0-.2.1-.3l-.2.1Z"/>
    <path class="cls-2" d="M53.2,15.4h.2-.2c0-.5-.2-1.1-.3-1.6h0v-2.1c0-1.6.1-3.9,0-6.4,0-1.3-.2-2.4-.3-3.5V.4h-.9c-.5,0-.9.1-1.3.2-.4,0-.8,0-1.1.2-.3,0-.6-.2-.9-.2-.5,0-1,0-1.4.2-.4.1-.7.3-1,.4-.9-.1-1.9-.2-3-.3h-.8c-.3,0-.7,0-1,.2-.7.3-1.2.8-1.5,1.5-.3.8-.3,1.3-.3,1.7v1.2c0,1.6,0,3.1.2,4.5,0,.7.2,1.3.3,2,0,.6.2,1.2.3,1.7,0,.2,0,.4.2.5h0c0,.2,0,.4-.1.5,0,.3-.2.6-.2.9h0l-.1.1h.1v.4l-.1.2h.1c.6-.2,1.3-.3,1.8-.5h.5c.9,0,2.1.2,3.3.2.5,0,1,.1,1.6.1h4.3c.4,0,.8-.1,1.1-.2h.6c.2,0,0-.2,0-.3v-.3l-.1.1ZM51,2h.2-.2ZM46.7,2.9v.2h0v-.2ZM48.1,13.2h.1v.1h-.2l.1-.1ZM52.4,11c0,.2,0,.5.1.7v.1h0c0-.3-.1-.5-.2-.8h.1ZM51.6,1.2h-.1c-.1,0,0,0,0,0v-.1h.1v.1Z"/>
    <g class="cls-4">
      <g>
        <path class="cls-7" d="M15.6,66.9c.8,1.9,1.8,3.8,3.5,5.6.9.9,1.9,1.7,3.2,2.2,1.2.5,2.7.8,4,.7,2.8-.2,5.2-1.6,6.8-3.4,1.7-1.8,2.6-4.2,2.9-6.3.3-2.2,0-4.2-.5-6s-1.3-3.3-2.1-4.6c-1.6-2.6-3.3-4.3-4.4-5.5-1.1-1.1-1.6-1.7-1.8-1.9,0,0,.6.7,1.6,2,.9,1.3,2.3,3.3,3.4,6,.5,1.3,1,2.8,1.2,4.4.2,1.6.2,3.3-.2,5-.4,1.7-1.2,3.3-2.5,4.5s-3,2.1-4.7,2.2c-1.7.2-3.3-.6-4.6-1.8-1.3-1.2-2.4-2.8-3.3-4.5-.9-1.6-1.7-3.3-2.4-4.8-.7-1.5-1.2-3-1.5-4.4-.5-2.8.2-5.1,1.1-6.5.5-.7.9-1.1,1.3-1.4.2-.2.4-.3.5-.3-.1,0-.2.2-.5.3-.4.2-.9.6-1.5,1.2-.6.6-1.1,1.5-1.6,2.6-.4,1.1-.7,2.5-.7,4.1s.4,3.3.9,5c.5,1.8,1.1,3.5,1.9,5.4v.2Z"/>
        <path class="cls-7" d="M57.9,71.2c1.6,1.6,3.7,3,6.3,3.4,1.3.2,2.7.1,4-.4s2.3-1.4,3.1-2.3c1.5-1.9,2.1-4.1,2.5-6,.8-3.8.8-7.2.6-10.1-.2-2.9-.7-5.1-1-6.6-.3-1.4-.5-2.1-.5-2.4,0,0,.2.9.3,2.4.1,1.6.2,3.8-.1,6.6-.3,2.8-.9,6-2,9.4-.5,1.7-1.2,3.3-2.3,4.5-1.1,1.2-2.4,1.7-4,1.5-1.6-.3-3.3-1.2-4.5-2.3-1.3-1.2-2.4-2.6-3.2-4.1-1.6-3-1.9-6.2-1.5-8.9s1.5-4.7,2.3-6c.4-.6.8-1.1,1.1-1.4.2-.2.4-.4.4-.4,0,0-.2.2-.5.4-.3.3-.8.7-1.3,1.3-1,1.2-2.5,3-3.4,5.8-.5,1.4-.8,3-.8,4.8s.3,3.7,1,5.6c.7,1.9,1.8,3.7,3.4,5.3l.1-.1Z"/>
        <g class="cls-5">
          <path class="cls-7" d="M83.4,79.9c-.1,0-.3-.1-.5-.2h.5-.7c-.3-.1-.5-.3-.9-.4-.3-.2-.6-.4-1-.5-.4-.2-.8-.4-1.2-.5-.8-.3-1.8-.6-2.8-.7-1-.1-2-.1-2.9,0-.4,0-.9.1-1.3.2-.4,0-.8.2-1.1.2s-.7.2-.9.2c-.3,0-.5.1-.7.1h-.6s.2,0,.6.2c.2,0,.4.2.7.3h.1c-7-.5-16.2-1.2-26.4-1.3-10.8-.1-20.6.4-27.7.8-3.5.2-6.4.4-8.4.5s-3.1.1-3.1.1c0,0,1.1,0,3.1.2s4.8.4,8.4.6c7.1.6,16.9,1.2,27.7,1.3,10.8.1,20.6-.4,27.7-.8h1.6c.8.3,1.8.6,2.8.7,1,.1,2,.1,2.9,0,.4,0,.9-.1,1.3-.2.4,0,.8-.2,1.1-.2s.7-.2.9-.2c.3,0,.5-.1.7-.1h.6s-.2,0-.6-.2l.1-.1Z"/>
        </g>
        <path class="cls-7" d="M64.9,19.6c.9,2.3,1.7,5.4,2,8.7.3,3.4,0,6.6-.6,8.9-.3,1.2-.6,2.1-.9,2.8-.3.6-.5.9-.5.9,0,0,.2-.3.7-.8.2-.3.5-.6.9-1,.3-.4.7-.8,1.1-1.4.8-1,1.5-2.4,2.1-4.1.6-1.7.9-3.6.7-5.7-.2-2-.8-3.9-1.6-5.5-.8-1.6-1.8-2.8-2.7-3.7s-1.7-1.6-2.3-2c-.6-.4-.8-.7-.8-.7,0,0,.3.3.7.9.4.6.9,1.5,1.3,2.6l-.1.1Z"/>
      </g>
    </g>
  </g>
</svg>