<?xml version="1.0" encoding="UTF-8"?>
<svg id="Lag_2" data-name="Lag 2" xmlns="http://www.w3.org/2000/svg" xmlns:xlink="http://www.w3.org/1999/xlink" viewBox="0 0 127.5 129.6">
  <defs>
    <style>
      .cls-1 {
        fill: none;
      }

      .cls-2 {
        fill: #4b39b5;
      }

      .cls-3 {
        clip-path: url(#clippath-1);
      }

      .cls-4 {
        fill: #fff;
      }

      .cls-5 {
        fill: #ad1611;
      }

      .cls-6 {
        clip-path: url(#clippath);
      }

      .cls-7 {
        fill: #ff9eff;
      }
    </style>
    <clipPath id="clippath">
      <rect class="cls-1" x="2.9" y="4.8" width="124.6" height="124.8"/>
    </clipPath>
    <clipPath id="clippath-1">
      <rect class="cls-1" width="124.2" height="124.7"/>
    </clipPath>
  </defs>
  <g id="Lag_1-2" data-name="Lag 1">
    <g class="cls-6">
      <path class="cls-5" d="M127.5,67.7c0,2,0,4-.3,6.1s-.5,4-.9,6-.9,3.9-1.5,5.9-1.3,3.8-2,5.7c-.8,1.9-1.6,3.7-2.6,5.5s-2,3.5-3.1,5.2-2.3,3.3-3.6,4.9-2.6,3.1-4.1,4.5c-1.4,1.4-2.9,2.8-4.5,4.1s-3.2,2.5-4.9,3.6c-1.7,1.1-3.4,2.2-5.2,3.1s-3.6,1.8-5.5,2.6-3.8,1.5-5.7,2-3.9,1.1-5.9,1.5-4,.7-6,.9-4,.3-6.1.3-4,0-6.1-.3-4-.5-6-.9-3.9-.9-5.9-1.5c-1.9-.6-3.8-1.3-5.7-2-1.9-.8-3.7-1.6-5.5-2.6s-3.5-2-5.2-3.1-3.3-2.3-4.9-3.6-3.1-2.6-4.5-4.1-2.8-2.9-4.1-4.5c-1.3-1.6-2.5-3.2-3.6-4.9s-2.2-3.4-3.1-5.2-1.8-3.6-2.6-5.5c-.8-1.9-1.5-3.8-2-5.7s-1.1-3.9-1.5-5.9-.7-4-.9-6-.3-4-.3-6.1,0-4,.3-6.1c.2-2,.5-4,.9-6s.9-4,1.5-5.9,1.3-3.8,2-5.7c.8-1.9,1.6-3.7,2.6-5.5s2-3.5,3.1-5.2,2.3-3.3,3.6-4.9c1.3-1.6,2.6-3.1,4.1-4.5s2.9-2.8,4.5-4.1,3.2-2.5,4.9-3.6c1.7-1.1,3.4-2.2,5.2-3.1,1.8-1,3.6-1.8,5.5-2.6s3.8-1.5,5.7-2c1.9-.6,3.9-1.1,5.9-1.5s4-.7,6-.9,4-.3,6.1-.3,4,0,6.1.3c2,.2,4,.5,6,.9s4,.9,5.9,1.5,3.8,1.3,5.7,2c1.9.8,3.7,1.6,5.5,2.6s3.5,2,5.2,3.1,3.3,2.3,4.9,3.6,3.1,2.6,4.5,4.1c1.4,1.4,2.8,2.9,4.1,4.5s2.5,3.2,3.6,4.9,2.2,3.4,3.1,5.2c1,1.8,1.8,3.6,2.6,5.5.8,1.9,1.5,3.8,2,5.7s1.1,3.9,1.5,5.9.7,4,.9,6c.2,2,.3,4,.3,6.1Z"/>
    </g>
    <g class="cls-3">
      <path class="cls-7" d="M123.7,61.9c0,2,0,4-.3,6.1s-.5,4-.9,6-.9,4-1.5,5.9-1.3,3.8-2,5.7c-.8,1.9-1.6,3.7-2.6,5.5s-2,3.5-3.1,5.2-2.3,3.3-3.6,4.9c-1.3,1.6-2.6,3.1-4.1,4.5s-2.9,2.8-4.5,4.1-3.2,2.5-4.9,3.6-3.4,2.2-5.2,3.1c-1.8,1-3.6,1.8-5.5,2.6s-3.8,1.5-5.7,2c-1.9.6-3.9,1.1-5.9,1.5s-4,.7-6,.9-4,.3-6.1.3-4,0-6.1-.3c-2-.2-4-.5-6-.9s-4-.9-5.9-1.5-3.8-1.3-5.7-2c-1.9-.8-3.7-1.6-5.5-2.6s-3.5-2-5.2-3.1-3.3-2.3-4.9-3.6-3.1-2.6-4.5-4.1c-1.4-1.4-2.8-2.9-4.1-4.5-1.3-1.6-2.5-3.2-3.6-4.9s-2.2-3.4-3.1-5.2c-1-1.8-1.8-3.6-2.6-5.5-.8-1.9-1.5-3.8-2-5.7s-1.1-3.9-1.5-5.9-.7-4-.9-6-.3-4-.3-6.1,0-4,.3-6.1.5-4,.9-6,.9-3.9,1.5-5.9c.6-1.9,1.3-3.8,2-5.7.8-1.9,1.6-3.7,2.6-5.5s2-3.5,3.1-5.2,2.3-3.3,3.6-4.9c1.3-1.6,2.6-3.1,4.1-4.5,1.4-1.4,2.9-2.8,4.5-4.1s3.2-2.5,4.9-3.6c1.7-1.1,3.4-2.2,5.2-3.1s3.6-1.8,5.5-2.6,3.8-1.5,5.7-2,3.9-1.1,5.9-1.5,4-.7,6-.9,4-.3,6.1-.3,4,0,6.1.3,4,.5,6,.9,3.9.9,5.9,1.5,3.8,1.3,5.7,2c1.9.8,3.7,1.6,5.5,2.6s3.5,2,5.2,3.1,3.3,2.3,4.9,3.6,3.1,2.6,4.5,4.1,2.8,2.9,4.1,4.5c1.3,1.6,2.5,3.2,3.6,4.9s2.2,3.4,3.1,5.2,1.8,3.6,2.6,5.5c.8,1.9,1.5,3.8,2,5.7.6,1.9,1.1,3.9,1.5,5.9s.7,4,.9,6,.3,4,.3,6.1Z"/>
    </g>
    <path class="cls-5" d="M44.9,92.8v-56.3c0-4.6,5.2-9.4,9-7.3,13,7.2,26.6,20.5,39.3,30.7,3.1,2.5,3.1,7.1,0,9.6-12.7,10.2-26.3,23.5-39.3,30.7-3.8,2.1-9-2.7-9-7.3h0v-.1Z"/>
    <path class="cls-4" d="M41.9,88.3v-56.3c0-4.6,5.2-9.4,9-7.3,13,7.2,26.6,20.5,39.3,30.7,3.1,2.5,3.1,7.1,0,9.6-12.7,10.2-26.3,23.5-39.3,30.7-3.8,2.1-9-2.7-9-7.3h0v-.1Z"/>
    <path class="cls-2" d="M44.3,17c-1.2,0-2.3-.7-2.7-1.8-.6-1.5,0-3.2,1.6-3.8,2.1-.9,4.3-1.6,6.6-2.3,1.6-.4,3.2.5,3.6,2.1s-.5,3.2-2.1,3.6c-2,.6-4,1.2-5.9,2-.4,0-.7.2-1.1.2Z"/>
    <path class="cls-2" d="M14.6,51.5h-.6c-1.6-.3-2.6-1.9-2.3-3.5,0-.7,3.7-17.2,18.8-29.2,1.3-1,3.1-.8,4.1.5s.8,3.1-.5,4.1c-13.4,10.6-16.7,25.7-16.7,25.8-.3,1.4-1.5,2.3-2.9,2.3h.1Z"/>
  </g>
</svg>