<?xml version="1.0" encoding="UTF-8"?>
<svg id="Lag_2" data-name="Lag 2" xmlns="http://www.w3.org/2000/svg" viewBox="0 0 57.62 58.88">
  <defs>
    <style>
      .cls-1 {
        fill: #ffffa7;
      }

      .cls-2 {
        fill: #ffd900;
      }

      .cls-3 {
        fill: #fff600;
      }

      .cls-4 {
        fill: #f90;
      }

      .cls-5 {
        fill: #fff;
      }

      .cls-6 {
        fill: #ffa900;
      }
    </style>
  </defs>
  <g id="Lag_1-2" data-name="Lag 1">
    <path class="cls-4" d="M56.53,38.53c-4.3,15-20.2,23.6-35.4,19.2C5.83,53.33-2.97,37.53,1.33,22.53,5.63,7.53,21.53-1.07,36.73,3.33c15.2,4.4,24.1,20.2,19.8,35.2Z"/>
    <path class="cls-2" d="M56.33,36.83c-4.4,15.3-20.3,24.1-35.5,19.7C5.53,52.13-3.27,36.13,1.13,20.83,5.53,5.53,21.43-3.27,36.73,1.13c15.2,4.4,24,20.4,19.6,35.7Z"/>
    <path class="cls-3" d="M44.83,5.13c-2.4-1.7-5.1-3.1-8.1-4C21.43-3.27,5.53,5.53,1.13,20.83.33,23.73.03,26.63.13,29.53c12.2-2.2,34.1-8.3,44.7-24.4h0Z"/>
    <path class="cls-6" d="M49.53,34.83c-3.3,11.5-15.3,18.2-26.8,14.9-11.5-3.3-18.1-15.4-14.8-26.9,3.3-11.5,15.3-18.2,26.8-14.9,11.5,3.3,18.1,15.4,14.8,26.9Z"/>
    <path class="cls-4" d="M28.83,51.33c-2.1,0-4.2-.3-6.3-.9-5.8-1.7-10.5-5.5-13.4-10.8s-3.6-11.3-1.9-17.1C10.03,12.93,18.83,6.23,28.83,6.23s4.2.3,6.2.9c11.9,3.4,18.8,16,15.3,27.9-2.8,9.6-11.6,16.3-21.5,16.3h0ZM28.73,7.93c-9.3,0-17.5,6.2-20.1,15.1-1.6,5.4-.9,11,1.8,15.9,2.7,4.9,7.1,8.5,12.5,10,1.9.6,3.9.8,5.8.8,9.2,0,17.5-6.2,20-15.2,3.2-11.1-3.2-22.8-14.3-26-1.9-.5-3.8-.8-5.8-.8v.2h.1Z"/>
    <path class="cls-5" d="M53.83,22.93c-1-10-11-16.5-11.1-16.5l.9-1.4c.4.3,10.7,7,11.8,17.8l-1.7.2h0l.1-.1Z"/>
    <path class="cls-1" d="M24.03,55.63c-15.8-2.6-20.5-16.5-20.6-16.7l1.6-.5c0,.1,4.5,13.1,19.2,15.5l-.3,1.7h.1Z"/>
    <path class="cls-5" d="M41.13,4.03c0,.4-1.8.3-3.7-.4-1.9-.6-3.4-1.4-3.2-1.8,0-.4,1.8-.3,3.7.4,1.9.6,3.4,1.4,3.3,1.8h-.1Z"/>
    <path class="cls-5" d="M30.63,25.63c.5,0,.8-.4.8-.8s-.4-.8-.8-.8h-3.6c-.5,0-.8.4-.8.8s.4.8.8.8h1v6.8h-1c-.5,0-.8.4-.8.8s.4.8.8.8h3.6c.5,0,.8-.4.8-.8s-.4-.8-.8-.8h-1v-6.8h1Z"/>
    <path class="cls-5" d="M46.93,24.03h-6.1c-.5,0-.8.4-.8.8s.4.8.8.8h2.2v7.7c0,.4.4.8.8.8s.8-.4.8-.8v-7.7h2.2c.5,0,.8-.4.8-.8s-.4-.8-.8-.8h.1Z"/>
    <path class="cls-5" d="M38.73,23.63c-.5,0-.8.4-.8.8v6l-3.9-6.4c-.2-.3-.6-.5-.9-.4-.3,0-.6.4-.6.8v8.8c0,.4.4.8.8.8s.8-.4.8-.8v-5.9l3.9,6.4c.2.2.4.4.7.4s0,0,.2,0c.3,0,.6-.4.6-.8v-8.8c0-.4-.4-.8-.8-.8h0v-.1Z"/>
    <path class="cls-5" d="M21.13,23.93c-2.3,0-4.1,2.2-4.1,5s1.9,5,4.1,5,4.1-2.2,4.1-5-1.8-5-4.1-5ZM21.13,32.23c-1.4,0-2.5-1.5-2.5-3.3s1.1-3.3,2.5-3.3,2.5,1.5,2.5,3.3-1.1,3.3-2.5,3.3Z"/>
    <path class="cls-5" d="M12.93,23.93c-.6,0-1.2.1-1.8.3h0c-.5,0-.8.4-.8.8v7.9c0,.5.4.8.8.8s.8-.4.8-.8v-2.5h.9c2.2,0,4-1.5,4-3.3s-1.8-3.3-4-3.3h0l.1.1ZM12.93,28.93c-.3,0-.6,0-.9-.1v-3c.3,0,.6-.1.9-.1,1.3,0,2.3.8,2.3,1.7s-1.1,1.7-2.3,1.7v-.2Z"/>
  </g>
</svg>