<?xml version="1.0" encoding="UTF-8"?>
<svg id="Lag_2" data-name="Lag 2" xmlns="http://www.w3.org/2000/svg" xmlns:xlink="http://www.w3.org/1999/xlink" viewBox="0 0 112 115.8">
  <defs>
    <style>
      .cls-1 {
        fill: none;
      }

      .cls-2 {
        fill: #555040;
      }

      .cls-3 {
        fill: #335272;
      }

      .cls-4 {
        fill: #f7f3ea;
      }

      .cls-5 {
        clip-path: url(#clippath);
      }
    </style>
    <clipPath id="clippath">
      <rect class="cls-1" width="112" height="115.8"/>
    </clipPath>
  </defs>
  <g id="Lag_1-2" data-name="Lag 1">
    <g class="cls-5">
      <g>
        <path class="cls-3" d="M107.1,114.1c-11.6,2.7-19.6-6.1-29.3-1.9-9.7,4.2-20.6,2.6-28.4-1.8-7.8-4.3-12.8,2.7-24,2.7s-27.2-.7-23.6-13,11.6-7.6,14.1-25.3,5.3-32.9,13.3-38.1c8-5.1,3.1-11.3,13.9-16.4,3.1-1.5,6.1-2.5,9.1-3.2h0c-.4-1.2-.9-3.2-1.7-4.5-.3-.4-.5-.7-.9-1-2.7-1.9-5-5.7-3.9-7.5,1.2-1.8,2.2-2.2,3.6-.8s1.3.9,4.1-.2c2.8-1.1,4.4,0,5.2.8s1.4-2.4,4.2-2.9c2.8-.5,2.1.5,5,1.6,2.9,1.2,2.8-2.8,5.2-2.2,2.4.6,1.7,6,.4,9.5-.3.9-.9,1.8-1.4,2.7-1.6,2.3-3.5,4.1-3.5,4.1,4.8,1.1,8.7,3.1,11.2,5.5,6.1,6.1,16,11,17.9,28.2,1.9,17.1-.9,22.3,1.9,32.4s19.2,28.4,7.6,31.1v.2Z"/>
        <path class="cls-3" d="M99.5,83.1c-2.9-10.1,0-15.2-1.9-32.4-1.9-17.1-11.8-22.1-17.9-28.2-2.5-2.5-6.4-4.5-11.2-5.5-4.7-1-10.3-1.1-16.3.3-3,.7-6,1.7-9.1,3.2-10.8,5.1-5.9,11.3-13.9,16.4-8,5.2-10.9,20.4-13.3,38.1-2.4,17.7-10.5,13-14.1,25.3s12.4,13,23.6,13,16.2-7,24-2.7,18.7,6,28.4,1.8c9.7-4.2,17.7,4.6,29.3,1.9,11.6-2.7-4.8-21-7.6-31.1v-.1ZM15,108c0,.2-.2.3-.4.3h-.2c-.9-.4-1.9-.6-3-.7h-.5c-1.3-.2-2.6-.5-3.7-1.3-1.3-.9-2-2.3-1.8-3.6,0-.2.3-.4.5-.4.3,0,.4.3.4.5-.2,1.1.6,2.2,1.4,2.7.9.7,2.1.9,3.3,1.1h.5c1.1.2,2.2.4,3.2.8.2,0,.3.4.2.6h.1ZM26.9,77.7c-.8.7-1.7,1.3-2.6,1.8-.5.3-1,.6-1.5,1-2.2,1.6-4,3.8-5,6.3,0,.2-.2.3-.4.3h-.2c-.2,0-.3-.4-.3-.6,1.1-2.7,3-5.1,5.3-6.8.5-.4,1-.7,1.6-1,.9-.5,1.7-1.1,2.5-1.7,1-.9,2-2.4,1.7-3.9,0-.3.1-.5.4-.5s.5.1.5.4c.3,1.6-.4,3.4-2,4.8v-.1ZM29.3,39.6c-.2,0-.4-.1-.4-.3s0-.5.3-.6c.4-.2.9-.3,1.4-.4,1.3-.4,2.6-.9,3.9-1.4,1.9-.9,4.4-2.4,5.4-5,0-.2.4-.4.6-.3s.4.4.3.6c-1.1,2.9-3.8,4.6-5.9,5.5-1.3.6-2.7,1-4,1.5-.4.1-.9.3-1.3.4h-.3ZM49.1,108.3c0,.1-.2.2-.4.2h-.2c-5.1-3.2-11.7-4-17.4-2.1-.2,0-.5,0-.6-.3s0-.5.3-.6c6-2,12.8-1.2,18.2,2.2.2.1.3.4.1.6h0ZM46.2,70.9h-.2c-.2,0-.3,0-.4-.2s0-.5.2-.6c3.4-2,5.6-5.9,5.7-9.8,0-.2.2-.4.5-.4h0c.3,0,.5.2.4.5,0,4.2-2.5,8.4-6.2,10.6v-.1ZM56,18.7c-3.7,0-7.3,1.2-10.2,3.4h-.3c-.1,0-.3,0-.4-.2-.2-.2-.1-.5,0-.6,3.1-2.3,6.9-3.5,10.8-3.5s.5.2.5.5-.2.5-.5.5l.1-.1ZM66.1,19.1c-.3,0-.5-.1-.5-.4s.1-.5.4-.5c2-.3,4.2.1,6.4,1.2,1.9.9,3.7,2.2,5.4,3.5.2.2.2.4,0,.6,0,.1-.2.2-.4.2h-.3c-1.6-1.2-3.3-2.5-5.2-3.4-2-1-4.1-1.4-5.8-1.1v-.1ZM70.3,21.2c.1-.2.4-.3.6-.2,2,1,3.6,2.1,4.9,3.4.9.9,1.9,1.8,3.1,2.8.2.2.2.5,0,.6,0,.1-.2.2-.3.2s-.2,0-.3-.1c-1.2-1-2.2-1.9-3.1-2.8s-2.8-2.3-4.7-3.3c-.2-.1-.3-.4-.2-.6h0ZM76.5,78.1c-.8-.9-1.7-1.8-2.3-2.9-.7-1.3-.9-2.7-.6-3.9,0-.2.3-.4.6-.3.2,0,.4.3.3.6-.3.9-.1,2.1.5,3.2.6,1,1.4,1.9,2.2,2.7h0c.8.9,1.7,1.8,2.3,3,.1.2,0,.5-.2.6h-.2c-.2,0-.3,0-.4-.2-.6-1.1-1.4-2-2.2-2.8h0ZM91.4,109.4c0,.2-.3.4-.6.3-2.2-.7-4.5-1.3-6.8-1.2-2.5,0-4.7,1-6.1,2.5,0,0-.2.2-.3.2s-.2,0-.3-.1c-.2-.2-.2-.5,0-.6,1.5-1.7,4-2.7,6.7-2.8,2.5,0,4.9.5,7.1,1.2.2,0,.4.3.3.6v-.1ZM84.8,41.6c-.1-.2,0-.5.1-.6.2-.1.5,0,.6.1.1.2,3.5,5.3,1.2,14.1,0,.2-.2.3-.4.3s0,0-.1,0c-.2,0-.4-.3-.3-.6,2.2-8.3-1-13.3-1.1-13.3h0ZM82.5,31.6c-.2-.2-.2-.5,0-.6.2-.2.5-.2.6,0,4.6,4.4,9.5,10.4,10.7,21.9.9,8,.7,13.5.6,17.9v2.2c0,.3-.2.4-.5.4h0c-.3,0-.5-.2-.4-.5v-2.2c.1-4.4.3-9.8-.6-17.8-1.3-11.3-6-17.1-10.5-21.3h.1ZM104.8,97s-.2.2-.3.2-.2,0-.3-.1c-5.5-4.9-9.4-11.6-11-18.8,0-.3,0-.5.3-.5.2,0,.5,0,.5.3,1.6,7,5.4,13.5,10.7,18.3.2.2.2.5,0,.6h.1ZM72,12.8c.6-.8,1.1-1.8,1.4-2.7,1.3-3.5,1.9-8.9-.4-9.5-2.4-.7-2.3,3.3-5.2,2.2-2.9-1.1-2.2-2.2-5-1.6-2.8.5-3.5,3.7-4.2,2.9s-2.4-1.9-5.2-.8c-2.8,1.2-2.7,1.6-4.1.2-1.4-1.4-2.4-1-3.6.8s1.1,5.5,3.9,7.5c.3.2.6.6.9,1,4.1-1.3,12.5-3.1,21.5.1v-.1ZM71.8,10c.7-2.4,1.2-5.6.4-7.2-.1-.2,0-.5.2-.6s.5,0,.6.2c1,1.9.4,5.4-.3,7.9,0,.2-.2.3-.4.3s0,0-.1,0c-.2,0-.4-.3-.3-.6h-.1ZM68,9.5c.8-.7,1.1-1.8,1.2-2.6.1-1,0-2.1,0-3.1,0-.3.2-.5.4-.5.3,0,.5.2.5.4,0,1.1.2,2.2,0,3.3-.1.9-.5,2.2-1.5,3.1,0,0-.2.1-.3.1s-.2,0-.3-.1c-.2-.2-.2-.5,0-.6h0ZM52.1,10.9c0,.2-.2.3-.4.3s0,0-.1,0c-.2,0-.4-.3-.3-.6.2-.6.4-1.3.4-2,0-1-.7-1.9-1.5-2.9-.2-.2-.1-.5,0-.6.2-.2.5-.1.6,0,.7.9,1.7,2.1,1.7,3.5,0,.8-.2,1.6-.5,2.3h.1ZM61.1,10h-.2c-.2,0-.3-.4-.2-.6.2-.4.1-.9-.1-1.4s-.6-.9-1-1.3h0c-.5-.6-.9-1.1-1.2-1.7,0-.2,0-.5.2-.6.2,0,.5,0,.6.2.2.5.6.9,1,1.4h0c.4.5.8,1,1.1,1.6.4.7.4,1.5.2,2.2,0,.2-.2.3-.4.3v-.1Z"/>
      </g>
    </g>
    <path class="cls-4" d="M93,53c-1.3-11.3-6-17.1-10.5-21.3-.2-.2-.2-.5,0-.6.2-.2.5-.2.6,0,4.6,4.4,9.5,10.4,10.7,21.9.9,8,.7,13.5.6,17.9v2.2c0,.3-.2.4-.5.4h0c-.3,0-.5-.2-.4-.5v-2.2c.1-4.4.3-9.8-.6-17.8h.1ZM78.3,27.9s.2.1.3.1.3,0,.3-.2c.2-.2.1-.5,0-.6-1.2-1-2.2-1.9-3.1-2.8-1.3-1.3-3-2.5-4.9-3.4-.2-.1-.5,0-.6.2s0,.5.2.6c1.9.9,3.5,2,4.7,3.3s1.9,1.8,3.1,2.8h0ZM72.1,10.6h.1c.2,0,.4-.1.4-.3.8-2.4,1.3-6,.3-7.9-.1-.2-.4-.3-.6-.2s-.3.4-.2.6c.8,1.5.3,4.8-.4,7.2,0,.2,0,.5.3.6h.1Z"/>
    <path class="cls-2" d="M52.1,17.2h0c-.4-1.2-.9-3.2-1.7-4.5,4.1-1.3,12.5-3.1,21.5.1-1.6,2.3-3.5,4.1-3.5,4.1-4.7-1-10.3-1.1-16.3.3h0ZM86.2,55.5h.1c.2,0,.4-.1.4-.3,2.3-8.8-1.1-13.9-1.2-14.1-.1-.2-.4-.3-.6-.1s-.3.4-.1.6c0,0,3.3,5,1.1,13.3,0,.2,0,.5.3.6h0ZM79.1,81.1h.2c.2-.1.3-.4.2-.6-.6-1.2-1.5-2.1-2.3-3h0c-.8-.9-1.6-1.7-2.2-2.7-.6-1.1-.8-2.2-.5-3.2,0-.2,0-.5-.3-.6-.2,0-.5,0-.6.3-.4,1.2-.2,2.6.6,3.9.6,1.1,1.5,2,2.3,2.9h0c.8.8,1.6,1.7,2.2,2.8,0,.2.2.2.4.2h0ZM28.4,72.5c-.3,0-.4.3-.4.5.3,1.5-.7,3-1.7,3.9-.7.7-1.6,1.2-2.5,1.7-.5.3-1.1.6-1.6,1-2.4,1.7-4.3,4.1-5.3,6.8,0,.2,0,.5.3.6h.2c.2,0,.4-.1.4-.3,1-2.5,2.8-4.8,5-6.3.5-.3,1-.7,1.5-1,.9-.5,1.8-1.1,2.6-1.8,1.6-1.4,2.3-3.2,2-4.8,0-.2-.3-.4-.5-.4v.1ZM34.7,37.7c2.1-.9,4.8-2.6,5.9-5.5,0-.2,0-.5-.3-.6s-.5,0-.6.3c-1,2.6-3.5,4.1-5.4,5-1.3.6-2.6,1-3.9,1.4-.5.1-.9.3-1.4.4-.2,0-.4.3-.3.6,0,.2.2.3.4.3s0,0,.1,0c.4-.2.9-.3,1.3-.4,1.3-.4,2.7-.9,4-1.5h.2ZM91.1,108.8c-2.2-.7-4.7-1.3-7.1-1.2-2.7,0-5.2,1.1-6.7,2.8-.2.2-.2.5,0,.6,0,0,.2.1.3.1s.3,0,.3-.2c1.4-1.5,3.6-2.4,6.1-2.5,2.3,0,4.7.5,6.8,1.2.2,0,.5,0,.6-.3,0-.2,0-.5-.3-.6v.1ZM49,107.7c-5.4-3.4-12.2-4.2-18.2-2.2-.2,0-.4.3-.3.6s.3.4.6.3c5.8-1.9,12.3-1.1,17.4,2.1h.2c.2,0,.3,0,.4-.2s0-.5-.1-.6h0ZM14.7,107.4c-1-.4-2.1-.6-3.2-.8h-.5c-1.2-.2-2.4-.5-3.3-1.1-.8-.6-1.6-1.6-1.4-2.7,0-.3-.1-.5-.4-.5s-.5.1-.5.4c-.2,1.3.5,2.7,1.8,3.6,1.1.8,2.4,1.1,3.7,1.3h.5c1,.2,2,.3,3,.7h.2c.2,0,.3,0,.4-.3,0-.2,0-.5-.2-.6h-.1ZM68.4,10.3c.1,0,.2,0,.3-.1,1-.9,1.3-2.2,1.5-3.1.2-1.1,0-2.2,0-3.3,0-.3-.2-.4-.5-.4s-.4.2-.4.5c0,1,.2,2.1,0,3.1-.1.8-.4,1.8-1.2,2.6-.2.2-.2.5,0,.6,0,0,.2.1.3.1h0ZM61.3,7.6c-.3-.6-.7-1.1-1.1-1.5h0c-.4-.5-.8-.9-1-1.4,0-.2-.4-.3-.6-.2s-.3.4-.2.6c.3.6.7,1.1,1.2,1.6h0c.4.5.8.9,1,1.4.3.5.3,1,.1,1.4,0,.2,0,.5.2.6h.2c.2,0,.3,0,.4-.3.3-.6.2-1.4-.2-2.2h0ZM50.8,5.2c-.2-.2-.4-.2-.6,0s-.2.4,0,.6c.8,1,1.5,1.9,1.5,2.9,0,.7-.2,1.3-.4,2,0,.2,0,.5.3.6h.1c.2,0,.4-.1.4-.3.2-.7.5-1.5.5-2.3,0-1.4-1-2.6-1.7-3.5h-.1ZM94.1,78c0-.2-.3-.4-.5-.3-.3,0-.4.3-.3.5,1.6,7.2,5.5,13.9,11,18.8,0,0,.2.1.3.1s.2,0,.3-.2c.2-.2.2-.5,0-.6-5.3-4.8-9.2-11.3-10.7-18.3h-.1ZM77.1,23.6h.3c.1,0,.3,0,.4-.2s.1-.5,0-.6c-1.7-1.2-3.4-2.5-5.3-3.5-2.2-1.1-4.4-1.5-6.4-1.2-.3,0-.4.3-.4.5,0,.3.3.4.5.4,1.8-.2,3.8.1,5.8,1.1,1.9.9,3.6,2.1,5.2,3.4l-.1.1ZM56,17.8c-3.9,0-7.7,1.3-10.8,3.5-.2.1-.2.4,0,.6,0,.1.2.2.4.2h.3c2.9-2.2,6.6-3.4,10.2-3.4s.5-.2.5-.5-.2-.5-.5-.5l-.1.1ZM52,59.9h0c-.2,0-.4.2-.5.4,0,3.9-2.3,7.8-5.7,9.8-.2.1-.3.4-.2.6,0,.1.2.2.4.2h.2c3.6-2.2,6.1-6.3,6.2-10.6,0-.3-.2-.5-.4-.5v.1Z"/>
  </g>
</svg>