<?xml version="1.0" encoding="UTF-8"?>
<svg id="Lag_2" xmlns="http://www.w3.org/2000/svg" xmlns:xlink="http://www.w3.org/1999/xlink" version="1.1" viewBox="0 0 207.1 75.6">
  <!-- Generator: Adobe Illustrator 29.0.1, SVG Export Plug-In . SVG Version: 2.1.0 Build 192)  -->
  <defs>
    <style>
      .st0 {
        fill: none;
      }

      .st1 {
        fill: #940092;
      }

      .st2 {
        fill: #fff;
      }

      .st3 {
        fill: #ff35e5;
      }

      .st4 {
        fill: #d4006b;
      }

      .st5 {
        clip-path: url(#clippath);
      }

      .st6 {
        fill: #ff9eff;
      }
    </style>
    <clipPath id="clippath">
      <rect class="st0" width="207.1" height="75.6"/>
    </clipPath>
  </defs>
  <g id="Lag_1-2">
    <g class="st5">
      <path class="st2" d="M204.2,55.9c-2.1,3-5.4,4-7.4,4s-3.2-.5-4.6-1.3c-2.6-1.6-3.7-2.2-6.3-3.4-1.1-.5-5.1-2-6.2-2.3-2.3-.7-3.4-1-5.8-1.4-1-.2-4.1-.7-4.9-.7h-.8c-4.7-.4-10.2-.2-15.2.6-1.2.2-5.6.9-6.8,1.2-2.7.6-16,4.2-18.2,4.9-2.8.9-4.3,1.4-7.1,2.3-1.3.4-6.1,2.1-7.4,2.5l-2,.7c-1.8.6-3.2,1.1-5.5,1.8-.9.3-10.3,3.3-12.9,4.1-3,.9-4.7,1.4-7.9,2.2-1.4.4-6.8,1.6-8.3,1.9-3.1.7-4.9,1-8.3,1.5h-.2c-2.4.3-12.5,1.3-15.9,1.3h-3.6c-2.3,0-4.4-.2-7.3-.6-2.3-.2-13.5-2.5-14-2.6l-.6-.2c-3.2-.9-5.6-1.6-9.3-3.1-2.4-.9-4.3-2.9-5.1-5.4-3.8-11.8-7.8-24.3-11.9-37.2-.9-2.7-.3-5.6,1.4-7.8.4-1.8,1.4-3.5,2.9-4.8h0c1.5-1.3,3.5-2,5.4-2s2.8.3,4,1h0c3.6,2,5.3,2.8,8.8,4.2,1.9.8,8.3,3,10.3,3.5,0,0,5.1,1.2,8.6,1.7,1.8.3,7.8.8,9.6.8,0,0,4.6,0,8.2-.2h.3c.9,0,4.5-.5,5.5-.6,3.1-.4,4.5-.6,7.4-1.2h.2c1.3-.2,6.1-1.3,7.4-1.6,3.1-.7,4.5-1.1,7.4-1.9h0c2.4-.7,9.9-2.9,12.3-3.7,2.7-.9,4.2-1.3,6.6-2.1l.8-.3c1.3-.4,6.2-2,7.6-2.4,3-.9,4.5-1.4,7.5-2.3h0c2.4-.7,10-2.8,12.5-3.4,3-.7,4.6-1.1,7.7-1.6h0c1.4-.2,6.2-1,7.6-1.2,3.6-.5,7.4-.7,11.1-.7s5.9.2,8.6.5c1.3,0,6,.9,7.2,1.1,5.3,1.1,8.1,2,13,4.1h0c8.9,4,15,12.9,15.2,22.2,0,2.9-.6,5.6-2,7.8-.2.9-.6,1.8-1,2.7.9,2.1,1.7,4.2,2.6,6.2,1.1,2.8,0,8.3-2,11.3h.8q0,0,0-.1Z"/>
    </g>
    <path class="st1" d="M61.9,30.8c.3.3.4.8.3,1.2-2.3,10.9-4.5,21.7-6.8,32,0,.5-.5.9-.9,1-.2.8-.3,1.6-.5,2.4,0,.7-.8,1.2-1.5,1.2h-1c-3.4,0-5.4,0-9.1-.5-.6,0-1.1-.5-1.3-1-1.6-5-3.2-10.1-4.8-15.1-.7,3.2-1.4,6.4-2.1,9.6,0,.4-.3.7-.6.9,0,0-.2,0-.3,0-.2.8-.3,1.6-.5,2.4,0,.4-.3.7-.7,1-.2.2-.5.2-.8.2h-.4c-4.3-1.1-6.4-1.8-10.6-3.4-.4-.2-.8-.5-.9-.9-3.9-12.1-7.9-24.7-11.9-37.2-.2-.6,0-1.2.5-1.6.3-.2.6-.3,1-.3s.4,0,.7.2c-.2-.5-.3-1.1-.5-1.6-.2-.6,0-1.2.5-1.5.3-.2.6-.3.9-.3s.5,0,.7.2c3.8,2.1,5.7,3,9.5,4.5.4.2.7.5.8.9,1.7,6.4,3.4,12.5,4.9,18.3.8-3.6,1.5-7.3,2.3-10.9,0-.4.3-.8.7-1,0,0,.3,0,.4-.2.2-.7.3-1.5.5-2.2,0-.4.3-.7.6-.9.2,0,.5-.2.8-.2h.4c3.7,1,5.5,1.3,9.2,1.8.5,0,1,.5,1.2,1,1.6,5.2,3.2,10.4,4.8,15.6.6-3.7,1.1-7.4,1.7-11.2,0-.7.6-1.2,1.3-1.3,0-.7.2-1.4.3-2.1,0-.7.7-1.2,1.4-1.2h2.4c2,0,3.5,0,6.2-.3h0c.4,0,.8.2,1.1.5h0q0-.1,0,0ZM76.6,29.7c0-.4-.2-.8-.5-1.1-.3-.2-.6-.3-.9-.3h-.3c-3,.6-4.6.8-7.8,1.3-.7,0-1.3.8-1.2,1.5v1.8h-.3c-.8,0-1.4.8-1.3,1.6l1.7,31.4c0,.4.2.8.6,1.1.3.2.6.3.9.3s.2,0,.2,0c3.3-.5,4.8-.8,7.9-1.4.7-.2,1.2-.8,1.2-1.6v-1.8h.3c.7,0,1.2-.8,1.1-1.5l-.8-15.4-.8-15.9h0ZM111.8,18.7c-.2-.2-.5-.3-.8-.3h-.4l-.8.3c-2.5.8-3.9,1.3-6.7,2.1-.6.2-1,.8-1,1.4v1.7s-.3,0-.5.2c-.6.2-1.1.8-1,1.5l.4,9.8c-3.2-3.7-6.2-7.1-9-10.4-.3-.3-.7-.5-1.1-.5h-.4c-3,.8-4.5,1.2-7.7,2-.7.2-1.1.8-1.1,1.5v1.8h-.4c-.7.2-1.2.8-1.2,1.5l1.5,31.2c0,.5.2.9.6,1.1.3.2.6.3.9.3h.4c3.1-.8,4.7-1.2,7.7-2.1.7-.2,1.1-.8,1.1-1.5v-1.8h.4c.6-.2,1.1-.8,1-1.4l-.4-9.5c2.8,3.1,5.7,6.4,8.9,10,.3.3.7.5,1.1.5h.5c2.7-.9,4.2-1.4,6.6-2.2l.8-.3c.6-.2,1-.8,1-1.5v-1.8l.5-.2c.6-.2,1-.8,1-1.4l-1.1-30.7c0-.4-.2-.9-.6-1.1l-.2-.2h0ZM146.2,9.3c-.3-.2-.6-.3-.9-.3h-.3c-3,.5-4.4.9-7.3,1.5-.7.2-1.1.8-1.1,1.4v1.8h-.4c-.7.2-1.2.8-1.2,1.5l.2,9.1c-2.6-3.2-5.3-6.6-8.3-10.1-.3-.3-.7-.5-1.1-.5h-.4c-3,.9-4.4,1.4-7.4,2.3-.6.2-1,.8-1,1.4v1.7s-.3,0-.5.2c-.6.2-1.1.8-1.1,1.5l1,30.6c0,.5.3.9.7,1.2.3.2.6.3.8.3h.5c2.9-1,4.3-1.5,7.2-2.4.6-.2,1.1-.8,1-1.5v-1.8s.3,0,.4-.2c.6-.2,1-.8,1-1.4l-.3-9c2.8,3.4,5.5,6.7,8.2,9.9.3.4.7.6,1.2.6s.3,0,.4,0c2.8-.7,4.2-1,7-1.6.7,0,1.2-.8,1.2-1.5v-1.9h.3c.7,0,1.2-.7,1.1-1.4l-.7-30.2c0-.4-.2-.8-.5-1.1l.3-.2h0ZM171.8,32.9c0-.7-.6-1.3-1.3-1.4-2.4-.2-4.1-.3-5.8-.3h-3.3v-.2h1.3c1.4,0,2.8,0,4.9.2h0c.4,0,.8,0,1-.4.3-.3.5-.7.5-1.1v-2h0c.4,0,.7,0,1-.4s.5-.7.4-1.1v-5.6c0-.6-.4-1.1-.9-1.3h0c.3-.3.5-.7.5-1.1v-2h0c.4,0,.7,0,1-.4s.5-.7.5-1.1v-5.8c0-.7-.6-1.3-1.3-1.4-2.5-.3-5.1-.4-7.8-.4s-6.8.2-10.1.7c-.7,0-1.3.7-1.2,1.4v1.8h-.3c-.8,0-1.3.8-1.3,1.5l.6,30c0,.4.2.8.5,1.1.3.2.6.4,1,.4s.2,0,.2,0c3.7-.6,7.6-.9,11.3-.9s3.9,0,5.7.2h0c.4,0,.7,0,1-.4s.5-.7.5-1.1v-1.9h0c.4,0,.7,0,1-.4s.5-.7.5-1.1v-5.7l-.4.2h.3ZM199.6,47.3c-1.4-3.4-2.8-6.7-4.2-10.1.3-.2.7-.5.9-.8.9-.9,1.4-2.1,1.6-3.6,1-1.1,1.5-2.8,1.5-4.8,0-6.6-4.5-12.9-10.9-15.8-4.5-1.9-6.9-2.6-11.7-3.6h-.3c-.3,0-.7,0-.9.3-.3.3-.5.7-.5,1.1v1.9h0c-.3,0-.7,0-.9.3s-.6.7-.5,1.2l.3,29.4c0,.7.5,1.3,1.2,1.5,2.7.5,4,.8,6.6,1.6h.4c.3,0,.6,0,.9-.3.4-.3.6-.7.6-1.2v-2h0c.3,0,.6,0,.9-.3.4-.3.6-.7.6-1.2v-.2c.9,2.1,1.8,4.1,2.9,6.9,0,.3.4.6.8.8,3,1.3,4.4,2.1,7.2,3.9.2.2.5.2.8.2s.7,0,1-.4c.5-.4.7-1.1.4-1.7-.2-.5-.5-1.1-.7-1.6h0c.2.2.5.2.8.2s.7,0,.9-.3c.5-.4.6-1.1.4-1.6v.2s-.1,0-.1,0Z"/>
    <path class="st4" d="M54.5,32c2.1,0,3.8,0,6.3-.3-2.2,10.7-4.5,21.3-6.7,32h-1c-3.3,0-5.3,0-9-.5-2.3-7.3-4.6-14.6-6.9-21.8-1.4,6.6-2.8,13.2-4.3,19.9-4.1-1-6.2-1.7-10.5-3.3-4-12.4-7.9-24.8-11.8-37.2,3.9,2.1,5.8,3,9.7,4.6,2.3,8.6,4.6,17.2,7,25.7,1.6-7.3,3.1-14.6,4.6-21.8,3.8,1,5.7,1.3,9.4,1.9,2.4,8,4.9,16,7.4,23.9,1.2-7.7,2.3-15.4,3.4-23.1.9,0,1.7,0,2.4,0ZM145.9,40.5l-.7-30.2c-2.9.5-4.3.8-7.2,1.5.2,6.3.3,12.6.5,18.9-4.1-5.2-8.4-10.4-12.6-15.6-2.9.9-4.4,1.3-7.3,2.3.3,10.2.7,20.4,1,30.6,2.9-1,4.4-1.5,7.3-2.4-.2-6.2-.4-12.5-.6-18.7,4.2,5,8.4,10.1,12.6,15.2,2.8-.7,4.3-1.1,7.1-1.7h-.1q0,0,0,.1Z"/>
    <path class="st6" d="M75.1,29.8c.5,10.4,1.1,20.9,1.6,31.3-3.1.7-4.7.9-7.8,1.4-.6-10.5-1.2-21-1.7-31.5,3.2-.4,4.8-.7,7.9-1.3h0s0,.1,0,0ZM170.4,33c-2.3-.2-4-.3-5.7-.3s-2.9,0-4.8.2v-6.5h4.3c1.3,0,3,0,5,.2v-5.6c-2.1-.2-3.6-.2-5.2-.2h-4.1v-6.1h4c2.1,0,3.9,0,6.5.4v-5.8c-2.5-.3-5.1-.4-7.7-.4s-6.7.2-10,.6l.6,30c3.7-.6,7.7-.9,11.6-.9s3.9,0,5.8.3v-5.7h-.2v-.2h-.1Z"/>
    <path class="st3" d="M111,19.9c.4,10.2.8,20.5,1.1,30.7-2.9,1-4.4,1.5-7.4,2.5-4.5-5-9-10-13.4-15,.3,6.3.6,12.7.9,19-3,.9-4.5,1.3-7.6,2.1l-1.5-31.2c3.1-.7,4.6-1.1,7.7-2,4.5,5.2,9,10.3,13.5,15.4l-.8-19.2c3-.9,4.5-1.4,7.5-2.4h0s0,.1,0,.1ZM198.2,47.8c-2.9-1.8-4.4-2.6-7.4-4-2.3-5.3-3.4-8-5.7-13.1-.6-.2-1-.3-1.6-.5v10.9c-2.7-.8-4-1.1-6.7-1.6,0-9.8-.2-19.6-.3-29.4,4.6,1,6.9,1.6,11.4,3.5,5.7,2.5,9.9,8.3,10,14.5,0,3.1-1.4,5.1-4.5,5.1s-1,0-1.5,0c2.1,4.9,4.2,9.8,6.2,14.8h0v-.2h.1ZM191.3,24.6c0-2.2-1.2-4.2-3.7-5.2-1.7-.7-2.5-1-4.2-1.5v7.3c1.7.5,2.5.8,4.2,1.5.7.3,1.3.4,1.8.4,1.2,0,1.8-.9,1.8-2.5h.1,0Z"/>
  </g>
</svg>